C:\Users\r0593348\3dpredictsim\Results\Batchsim_tmt_linear\Pog_s1_tmt_aCst_d00_k250_ig24_pas_GRF.mot
nRows=17
nColumns=19

name C:\Users\r0593348\3dpredictsim\Results\Batchsim_tmt_linear\Pog_s1_tmt_aCst_d00_k250_ig24_pas_GRF.mot
datacolumns 19
datarows 17
range 0.0000000000 0.1809488162
endheader
time 	ground_force_vx	ground_force_vy	ground_force_vz	ground_force_px	ground_force_py	ground_force_pz	1_ground_force_vx	1_ground_force_vy	1_ground_force_vz	1_ground_force_px	1_ground_force_py	1_ground_force_pz	ground_torque_x	ground_torque_y	ground_torque_z	1_ground_torque_x	1_ground_torque_y	1_ground_torque_z
        0.0000000000	      -57.3630441054	       77.2586069532	       60.7977541843	        0.1769972136	        0.0000000000	        0.0344590084	       84.9302357367	      426.9187462933	       -7.3664362846	       -0.3265625070	        0.0000000000	       -0.0278674695	        0.0000000000	        0.0000000000	        0.0000000000	        0.0000000000	        0.0000000000	        0.0000000000	
        0.0113093010	      -51.4639704335	      178.4124692339	      104.0707550944	        0.1809965401	        0.0000000000	        0.0317714534	       65.2611325189	      340.1409620558	      -14.3504235275	       -0.3211297627	        0.0000000000	       -0.0261447182	        0.0000000000	        0.0000000000	        0.0000000000	        0.0000000000	        0.0000000000	        0.0000000000	
        0.0226186020	      -43.3776420032	      346.0129483468	       26.1663683143	        0.1838703531	        0.0000000000	        0.0291399275	       36.1439374931	      230.7747097978	      -10.7326667823	       -0.3101300565	        0.0000000000	       -0.0213650402	        0.0000000000	        0.0000000000	        0.0000000000	        0.0000000000	        0.0000000000	        0.0000000000	
        0.0339279030	      -55.4498062367	      542.8714478693	       -0.0957914475	        0.1886422876	        0.0000000000	        0.0297619331	       17.0906401000	      152.4957596819	      -10.0195016177	       -0.2931967433	        0.0000000000	       -0.0126917472	        0.0000000000	        0.0000000000	        0.0000000000	        0.0000000000	        0.0000000000	        0.0000000000	
        0.0452372041	      -95.6452871795	      749.4087157959	       -9.6380669982	        0.1972296486	        0.0000000000	        0.0323104415	        0.9794901798	      123.4514511631	      -12.1104667535	       -0.2913342494	        0.0000000000	       -0.0115046319	        0.0000000000	        0.0000000000	        0.0000000000	        0.0000000000	        0.0000000000	        0.0000000000	
        0.0565465051	     -119.9007131871	      872.6491717487	      -12.1570007812	        0.2030479922	        0.0000000000	        0.0339551709	       -3.4230405737	       81.5586072935	      -10.3568029175	       -0.2908647863	        0.0000000000	       -0.0114959578	        0.0000000000	        0.0000000000	        0.0000000000	        0.0000000000	        0.0000000000	        0.0000000000	
        0.0678558061	     -125.0786734860	      904.0924180435	      -13.3271376326	        0.2069587589	        0.0000000000	        0.0349029970	       -7.8980524623	       33.8061719497	       -6.0310667041	       -0.2908539579	        0.0000000000	       -0.0114509540	        0.0000000000	        0.0000000000	        0.0000000000	        0.0000000000	        0.0000000000	        0.0000000000	
        0.0791651071	     -117.3746799979	      886.1749429984	      -13.6122065793	        0.2100054914	        0.0000000000	        0.0354436246	        0.0394191784	       -0.0389211867	        0.0007281031	        0.0000000000	        0.0000000000	        0.0000000000	        0.0000000000	        0.0000000000	        0.0000000000	        0.0000000000	        0.0000000000	        0.0000000000	
        0.0904744081	     -104.2598699847	      847.9459631805	      -14.5837406854	        0.2130343645	        0.0000000000	        0.0357080837	        0.0000068508	       -0.0000054930	       -0.0000004863	        0.0000000000	        0.0000000000	        0.0000000000	        0.0000000000	        0.0000000000	        0.0000000000	        0.0000000000	        0.0000000000	        0.0000000000	
        0.1017837091	      -90.1709824797	      800.1267792476	      -14.4379205996	        0.2162072409	        0.0000000000	        0.0358356205	        0.0000080691	       -0.0000057074	       -0.0000006764	        0.0000000000	        0.0000000000	        0.0000000000	        0.0000000000	        0.0000000000	        0.0000000000	        0.0000000000	        0.0000000000	        0.0000000000	
        0.1130930101	      -77.5488494635	      754.9730567286	      -14.4596978268	        0.2196537010	        0.0000000000	        0.0358827134	        0.0001680460	       -0.0001066334	       -0.0000153220	        0.0000000000	        0.0000000000	        0.0000000000	        0.0000000000	        0.0000000000	        0.0000000000	        0.0000000000	        0.0000000000	        0.0000000000	
        0.1244023111	      -66.6070342189	      718.8133799900	      -14.7166226876	        0.2237338487	        0.0000000000	        0.0358256983	        0.0037933241	       -0.0022063844	       -0.0003630617	        0.0000000000	        0.0000000000	        0.0000000000	        0.0000000000	        0.0000000000	        0.0000000000	        0.0000000000	        0.0000000000	        0.0000000000	
        0.1357116122	      -56.5363763864	      687.6837048561	      -15.4000581072	        0.2280413178	        0.0000000000	        0.0357228905	       -0.0194036187	        0.0104938082	        0.0019218256	        0.0000000000	        0.0000000000	        0.0000000000	        0.0000000000	        0.0000000000	        0.0000000000	        0.0000000000	        0.0000000000	        0.0000000000	
        0.1470209132	      -47.2436057586	      659.7282621289	      -16.3864117600	        0.2323917904	        0.0000000000	        0.0356480960	       -0.0133690489	        0.0067976659	        0.0013709543	        0.0000000000	        0.0000000000	        0.0000000000	        0.0000000000	        0.0000000000	        0.0000000000	        0.0000000000	        0.0000000000	        0.0000000000	
        0.1583302142	      -39.4959779369	      635.7895199596	      -17.4767175174	        0.2368700707	        0.0000000000	        0.0356101480	       -0.0097681268	        0.0047125688	        0.0010370271	        0.0000000000	        0.0000000000	        0.0000000000	        0.0000000000	        0.0000000000	        0.0000000000	        0.0000000000	        0.0000000000	        0.0000000000	
        0.1696395152	      -33.1572529742	      616.7050608108	      -18.3550394526	        0.2414190914	        0.0000000000	        0.0355995937	       -0.0094995960	        0.0043795054	        0.0010434116	        0.0000000000	        0.0000000000	        0.0000000000	        0.0000000000	        0.0000000000	        0.0000000000	        0.0000000000	        0.0000000000	        0.0000000000	
        0.1809488162	      -27.9267902623	      602.1149728356	      -19.0525765407	        0.2460707005	        0.0000000000	        0.0356018102	       -0.0125160540	        0.0055475687	        0.0014174858	        0.0000000000	        0.0000000000	        0.0000000000	        0.0000000000	        0.0000000000	        0.0000000000	        0.0000000000	        0.0000000000	        0.0000000000	
